# xmcd
#
# Track frame offsets:
#	150
#	17328
#	36961
#	51623
#	72488
#	93510
#	112663
#	133663
#	153274
#	169214
#	187213
#	205014
#	232284
#	250077
#	269945
#	291359
#	306045
#	325157
#	340338
#
# Disc length: 4791 seconds
# Revision: 0
# Processed by: cddbd v1.4PL0 Copyright (c) Steve Scherf et al.
# Submitted via: cdrLabel 6.0
#
DISCID=2512b513
DTITLE=Jerry Jeff Walker
DYEAR=2003
DGENRE=
TTITLE0=What I Like About Texas
TTITLE1=Pick-Up Truck
TTITLE2=Barefootin'
TTITLE3=Uno Mas Cerveza
TTITLE4=Woman in Texas
TTITLE5=Up Against The Wall (Redneck Mother)
TTITLE6=Trashy Women
TTITLE7=Don't It Make You Wanna Dance
TTITLE8=Rodeo Cowboy
TTITLE9=Pissin' In The Wind
TTITLE10=Mr. Bojangles
TTITLE11=Man With The Big Hat
TTITLE12=Luckenbach
TTITLE13=Leavin' Texas
TTITLE14=Hill Country Rain
TTITLE15=Hairy-Ass Hillbillies
TTITLE16=Gettin' By
TTITLE17=Easy Come, Easy Go
TTITLE18=Where Was I
EXTD=
EXTT0=3:49
EXTT1=4:21
EXTT2=3:15
EXTT3=4:38
EXTT4=4:40
EXTT5=4:15
EXTT6=4:40
EXTT7=4:21
EXTT8=3:32
EXTT9=3:59
EXTT10=3:57
EXTT11=6:03
EXTT12=3:57
EXTT13=4:24
EXTT14=4:45
EXTT15=3:15
EXTT16=4:14
EXTT17=3:22
EXTT18=4:13
PLAYORDER=
